# xmcd CD database file
#
# Track frame offsets:
#	187
#	24052
#	44415
#	61275
#	79545
#	107452
#	137545
#	162490
#	175205
#	193132
#	214410
#	229705
#	250347
#	272162
#	289112
#	307395
#
# Disc length: 4419 seconds
#
# Revision: 0
# Processed by: cddbd v1.5.2PL0 Copyright (c) Steve Scherf et al.
# Submitted via: CDex 1.51
#
DISCID=e5114110
DTITLE=Various Artist -  Narada - Sampler - Nuages
DYEAR=1993
DGENRE=New Age
TTITLE0=Michael Gettel - Skywatching
TTITLE1=Wayne Grats - The lighthouse
TTITLE2=Ralf Illenberger - Love Bird
TTITLE3=David Arkenstone - Splendor of the sun
TTITLE4=David Lanz - Summer's Child
TTITLE5=Jessie Allen Cooper - Soft Wave
TTITLE6=Richard Souther - Safe Harbor
TTITLE7=Eric Tingstad and Nancy - Give and Take
TTITLE8=Firedman - Maramboya Morning
TTITLE9=Brian Mann - Reclining Civilization
TTITLE10=Ralf Illenberger - Dancing Kachinas
TTITLE11=Eric Tingstad and Nancy Rumbel - Iris in Moonlight
TTITLE12=Spencer Brewer - Lunar Monsoon
TTITLE13=William Elwood - Ivory Wind
TTITLE14=Michael Gettel - Zuni Rain
TTITLE15=David Arkenstone - Papillion
EXTD=YEAR: 1993
EXTT0=
EXTT1=
EXTT2=
EXTT3=
EXTT4=
EXTT5=
EXTT6=
EXTT7=
EXTT8=
EXTT9=
EXTT10=
EXTT11=
EXTT12=
EXTT13=
EXTT14=
EXTT15=
PLAYORDER=
